PathFileType	4	(X/Y/Z)	C:\Users\u0145647\OneDrive - KU Leuven\KU Leuven\c3d2osim\CP4\T0\Data\Processed\ViconC3D_CP4_2\CP4_T0_09_gapFilled.trc
DataRate	CameraRate	NumFrames	NumMarkers	Units	OrigDataRate	OrigDataStartFrame	OrigNumFrames
100.000000	100.000000	7	47	mm	100.000000	158	631
Frame#	Time	C7			T10			CLAV			STRN			LSHO			RSHO			RBAK			LASI			RASI			LPSI			RPSI			LLAT			RLAT			LF1			LF2			LF3			LTHI			LKNE			LMEK			RF1			RF2			RF3			RTHI			RKNE			RMEK			LT1			LT2			LT3			LTIB			LANK			LMM			RT1			RT2			RT3			RTIB			RANK			RMM			LHEE			LSTL			LLCA			LTOE			LCM5			RHEE			RSTL			RLCA			RTOE			RCM5
		X1	Y1	Z1	X2	Y2	Z2	X3	Y3	Z3	X4	Y4	Z4	X5	Y5	Z5	X6	Y6	Z6	X7	Y7	Z7	X8	Y8	Z8	X9	Y9	Z9	X10	Y10	Z10	X11	Y11	Z11	X12	Y12	Z12	X13	Y13	Z13	X14	Y14	Z14	X15	Y15	Z15	X16	Y16	Z16	X17	Y17	Z17	X18	Y18	Z18	X19	Y19	Z19	X20	Y20	Z20	X21	Y21	Z21	X22	Y22	Z22	X23	Y23	Z23	X24	Y24	Z24	X25	Y25	Z25	X26	Y26	Z26	X27	Y27	Z27	X28	Y28	Z28	X29	Y29	Z29	X30	Y30	Z30	X31	Y31	Z31	X32	Y32	Z32	X33	Y33	Z33	X34	Y34	Z34	X35	Y35	Z35	X36	Y36	Z36	X37	Y37	Z37	X38	Y38	Z38	X39	Y39	Z39	X40	Y40	Z40	X41	Y41	Z41	X42	Y42	Z42	X43	Y43	Z43	X44	Y44	Z44	X45	Y45	Z45	X46	Y46	Z46	X47	Y47	Z47

158	1.57	-1184.3	1420.2	-100.2	-1199.3	1159.2	-132.3	-1064.5	1346.1	-108.86	-1023	1198.4	-120.21	-1126.3	1391.4	-318.85	-1128.1	1363.9	88.158	-1212.2	1324.4	19.01	-1011.7	904.77	-210.44	-1041.4	911.8	-11.182	-1189.7	943.99	-178.57	-1203.1	953.88	-105.56	-1065.1	976.38	-273.45	-1112.3	981.14	22.122	-977.99	657.76	-286.71	-1006.1	695.55	-286.41	-1009	644.22	-294.43	-973.44	580.99	-339.41	-938.23	455.04	-270.72	NaN	NaN	NaN	-1089.1	631	11.421	-1072.2	665.65	19.503	-1131	661.64	12.17	-1081.7	566.49	42.782	-1044.9	452.54	-39.714	NaN	NaN	NaN	-1075.6	342.34	-294.66	-1016.3	346.37	-278.85	-1053.5	381.01	-291.86	-1070.5	251.31	-313.17	-1233.7	160.18	-271.1	-1214.6	164.97	-185.74	-1095.8	310.66	-19.061	-1063.5	347.23	-37.563	-1109.9	362.29	-14.681	-1089.9	236.27	19.084	-1167.4	74.066	-32.245	-1165.1	88.616	-119.36	-1282.5	177.43	-225.71	-1233.5	141.82	-188.96	-1245.6	135.63	-265.15	-1154.8	62.7	-216.62	-1167.2	53.608	-259.38	-1222.6	75.212	-65.951	-1171.1	52.116	-114.8	-1163.8	48.006	-36.496	-1046.8	39.342	-80.009	-1066.9	24.34	-23.833
159	1.58	-1173.2	1421.7	-99.42	-1189.2	1160.9	-131.73	-1053.2	1347.3	-109.09	-1012.4	1199.3	-120.61	-1116.4	1392.4	-318.43	-1116.4	1365.4	88.724	-1200.9	1326.3	19.943	-1002	906.3	-209.82	-1031.4	914.11	-12.035	-1179.9	945.39	-178.86	-1193.5	955.43	-105.98	-1055	977.9	-273.11	-1103.2	982.59	22.191	-963.91	661.88	-286.5	-993.05	698.77	-286.49	-994.82	647.53	-294.12	-957.53	584.6	-338.58	-918.66	460.82	-268.83	NaN	NaN	NaN	-1084	632.98	12.363	-1065.2	666.71	19.716	-1124	663.11	12.328	-1075.4	567.52	43.061	-1040.4	452.83	-39.327	NaN	NaN	NaN	-1052.6	343.92	-292.27	-993.14	349.92	-277.5	-1032.1	383.6	-288.75	-1043.8	253.55	-312.87	-1202.5	154.78	-269.99	-1183.4	159.61	-184.59	-1092.4	311.45	-18.592	-1060.9	348.13	-37.513	-1105.9	363.3	-14.301	-1087.6	237.25	19.802	-1165.4	74.923	-32.203	-1164	90.112	-118.78	-1252.1	169.61	-223.94	-1200.9	135.33	-187.88	-1213.8	129.82	-264.23	-1117.3	61.729	-217.61	-1130.8	51.907	-260.22	-1221.9	77.566	-65.35	-1170.5	53.97	-114.13	-1163.1	49.264	-36.057	-1046.4	39.307	-79.885	-1066.6	24.231	-23.762
160	1.59	-1162.3	1422.8	-98.906	-1179.1	1162.4	-131.31	-1042.6	1347.9	-108.81	-1002.8	1200.1	-119.59	-1106.5	1393.3	-318.15	-1104.7	1366.7	89.212	-1189.8	1327.9	20.755	-992.35	907.51	-209.05	-1024.1	913.84	-9.8966	-1170.1	946.6	-179.2	-1184	956.71	-106.39	-1045.3	979.07	-272.75	-1094.4	983.9	22.307	-950.19	665.64	-286.26	-980.01	701.97	-286.42	-980.67	650.59	-293.6	-942.09	587.83	-337.76	-899.46	466.46	-266.7	NaN	NaN	NaN	-1076.7	633.81	12.331	-1057.3	667.18	19.55	-1115.8	663.7	11.947	-1069	568.48	43.288	-1035.2	453.15	-39.066	NaN	NaN	NaN	-1029.5	345.07	-289.95	-970.12	353.36	-276.05	-1010.7	385.67	-285.95	-1017.3	255.42	-312.26	-1170.8	149.38	-268.94	-1151.2	153.76	-183.48	-1088.9	312.41	-18.299	-1055.3	349.13	-37.093	-1101.8	364.29	-13.896	-1084.4	237.82	20.017	-1165	76.958	-31.472	-1163.1	91.963	-118.21	-1220.9	161.38	-222.4	-1167.6	128.72	-186.95	-1180.5	124.03	-262.99	-1080.9	60.142	-218.62	-1094	50.343	-260.72	-1220.8	79.847	-64.861	-1170.1	55.796	-113.69	-1162.5	50.955	-35.596	-1045.9	39.438	-79.785	-1066.3	24.275	-23.633
161	1.6	-1151.3	1423.9	-98.393	-1169.1	1163.7	-130.97	-1032.5	1348.4	-107.79	-993.12	1200.3	-118.87	-1096.5	1393.9	-317.85	-1093.5	1367.7	89.646	-1178.8	1329.2	21.395	-982.42	908.77	-208.48	-1017.3	914.85	-11.325	-1160.4	947.58	-179.52	-1174.5	957.92	-106.82	-1035.4	979.83	-272.16	-1085.3	985.05	22.461	-936.55	669.1	-286.04	-967.12	704.88	-286.44	-966.51	653.32	-293.16	-926.23	590.77	-336.01	-880.69	472	-264.53	NaN	NaN	NaN	-1069.5	634.47	12.317	-1050.2	667.93	19.637	-1108.3	664.54	11.829	-1062.5	569.23	43.437	-1029.7	453.26	-38.997	NaN	NaN	NaN	-1006.5	345.97	-288.03	-947.33	356.5	-274.51	-989.22	387	-283.58	-990.7	257.02	-311.75	-1138.3	143.6	-267.75	-1118.6	148.05	-182.56	-1085.1	313.26	-18.036	-1051.7	349.09	-36.86	-1097.5	365.5	-13.799	-1082.3	239.13	20.684	-1164.1	78.637	-30.951	-1162	93.619	-117.76	-1188.9	153.13	-220.97	-1134.6	122.79	-185.74	-1146.9	117.9	-262.18	-1044.1	58.438	-218.89	-1057.1	48.91	-261.34	-1219.8	82.134	-64.416	-1169.3	57.478	-113.26	-1161.8	52.52	-35.173	-1045.5	39.453	-79.614	-1066	24.454	-23.461
162	1.61	-1140.3	1425	-97.879	-1159	1164.8	-130.68	-1021.3	1349	-108.41	-982.86	1200.6	-118.76	-1086.6	1394.4	-317.68	-1082.2	1368.5	90.047	-1168	1330.3	21.889	-972.57	909.6	-207.82	-1007.8	916.02	-10.823	-1150.6	948.33	-179.85	-1165.1	958.91	-107.3	-1025.6	980.35	-271.66	-1076.5	986.04	22.429	-922.78	673.21	-285.52	-954.45	707.9	-286.58	-952.87	656.2	-292.61	-910.89	594.24	-334.86	-862.45	477.34	-262.28	NaN	NaN	NaN	-1062.3	634.77	12.143	-1042.5	668.13	19.406	-1100.8	665.18	11.606	-1056	569.71	43.449	-1024.2	453.32	-38.809	NaN	NaN	NaN	-982.99	345.96	-286.2	-924.49	359.25	-272.64	-967.65	387.87	-281.62	-963.26	257.87	-310.22	-1105.7	137.8	-266.49	-1086.4	142.96	-180.83	-1081.2	314.1	-17.813	-1048.6	349.29	-36.751	-1092.9	366.31	-13.596	-1079.5	239.86	20.95	-1163.3	80.444	-30.586	-1160.6	95.038	-117.55	-1156.5	144.1	-219.52	-1101	116.81	-184.43	-1112.8	111.77	-260.97	-1006.3	57.623	-219.24	-1019.6	47.833	-261.5	-1218.6	84.382	-64.159	-1168.6	59.142	-112.97	-1161.3	54.249	-34.99	-1045.1	39.475	-79.519	-1065.8	24.563	-23.425
163	1.62	-1129.3	1426.1	-97.365	-1148.9	1165.7	-130.42	-1010.7	1349.4	-108.67	-972.58	1201.3	-118.96	-1076.4	1394.6	-317.7	-1071.2	1369	90.393	-1157.2	1331.2	22.3	-962.55	910.62	-207.5	-998.55	916.44	-10.597	-1140.8	948.88	-180.13	-1155.6	959.59	-107.72	-1015.6	980.6	-270.98	-1067.6	986.68	22.461	-909.76	676.45	-285.02	-942.25	710.5	-286.18	-939.75	658.66	-291.26	-895.94	597.2	-333.42	-844.82	482.43	-260.06	NaN	NaN	NaN	-1055.4	634.83	12.017	-1035.2	667.95	19.248	NaN	NaN	NaN	-1049.6	569.82	43.341	-1018.4	453.22	-38.734	NaN	NaN	NaN	-959.33	345.57	-284.7	-901.51	361.48	-270.4	-945.84	388.1	-280	-935.17	258.57	-307.96	-1072.5	132.3	-265.44	-1053.5	137.66	-179.38	-1077.2	314.64	-17.812	-1042	349.99	-36.566	-1088.2	366.95	-13.638	-1076.5	240.43	21.099	-1162.5	82.178	-30.455	-1159.5	96.733	-117.45	-1123.5	135.52	-218.05	-1066	110.14	-183.33	-1078	105.32	-259.83	-968.89	57.221	-219.32	-981.9	47.018	-261.4	-1217.6	86.789	-64.092	-1167.8	61.025	-112.81	-1160.6	55.752	-34.789	-1044.8	39.555	-79.454	-1065.6	24.597	-23.495
164	1.63	-1118.4	1426.7	-97.146	-1138.8	1166.4	-130.28	-999.92	1349.7	-108.83	-962.43	1201.8	-119.03	-1066.4	1394.8	-317.71	-1060.2	1369.3	90.637	-1146.5	1332	22.531	-952.53	911.02	-206.85	-990.01	916.46	-10.278	-1131.1	949.33	-180.35	-1146.5	960.17	-108.05	-1005.6	981.18	-270.3	-1057.3	986.56	22.189	-896.54	679.59	-284.02	-929.81	713.05	-286.07	-925.64	661.16	-290.93	-881.33	600	-331.88	-827.73	487.1	-257.94	NaN	NaN	NaN	-1049.2	635.02	12.093	-1029.3	668.27	19.893	NaN	NaN	NaN	-1043.1	569.75	43.132	-1012.6	452.93	-38.791	NaN	NaN	NaN	-935.36	344.58	-283.15	-878.8	363.61	-268.19	-923.95	387.98	-278.67	-906.25	258.32	-305.06	-1038.8	126.62	-263.98	-1020.9	132.68	-178.49	-1073.3	315.1	-17.83	-1040.2	349.06	-36.392	-1083.3	367.49	-13.663	-1073.5	241.08	21.112	-1161.3	83.638	-30.451	-1158	98.177	-117.35	-1090.1	127.04	-216.67	-1031.8	104.78	-181.84	-1043.3	99.548	-258.65	-931.72	56.511	-218.47	-943.96	46.665	-260.75	-1216.5	89.176	-64.19	-1166.9	62.573	-112.84	-1159.8	57.217	-34.781	-1044.4	39.664	-79.413	-1065.5	24.754	-23.601
